<?xml version="1.0" encoding="utf-8"?>
<!-- Generator: Adobe Illustrator 22.1.0, SVG Export Plug-In . SVG Version: 6.00 Build 0)  -->
<svg version="1.1" id="Layer_1" xmlns="http://www.w3.org/2000/svg" xmlns:xlink="http://www.w3.org/1999/xlink" x="0px" y="0px"
	 viewBox="0 0 256 256" style="enable-background:new 0 0 256 256;" xml:space="preserve">
<style type="text/css">
	.st0{fill:#231F20;}
	.st1{fill:#FFEFE4;}
	.st2{fill:#69EBFC;}
	.st3{fill:#5FD4E3;}
	.st4{fill:#A1F1FC;}
	.st5{fill:#D476E2;}
	.st6{fill:#B665C2;}
	.st7{fill:#EA82FA;}
	.st8{fill:#FFF7F2;}
	.st9{fill:#FF8354;}
	.st10{fill:#FFA172;}
	.st11{fill:#6770E6;}
	.st12{fill:#5861C7;}
	.st13{fill:#E0734A;}
	.st14{fill:#EDD4C2;}
	.st15{fill:#CC6944;}
	.st16{fill:#858EFF;}
	.st17{fill:#C76642;}
	.st18{fill:#FFFFFF;}
	.st19{fill:#FFDEC7;}
	.st20{fill:#4E56B0;}
	.st21{fill:#94529E;}
	.st22{fill:#41B6C5;}
	.st23{fill:#9847A4;}
	.st24{fill:#C2552C;}
	.st25{fill:#CFB6A4;}
</style>
<g>
	<path class="st5" d="M55.078,120.61c5.336-3.462,10.82-6.755,15.621-10.927c7.237-6.289,11.45-13.177,2.83-21.797
		c0,0-23.19-23.19-23.19-23.19c-3.564-3.563-9.473-5.161-14.135-2.934c-2.505,1.197-4.566,3.14-6.542,5.092
		c-1.955,1.931-3.865,3.887-5.713,5.874C8.393,89.444-2.794,108.295,0.614,132.382c1.765,12.474,6.917,24.261,13.318,35.017
		c17.673,29.696,44.527,56.586,74.311,74.311c10.757,6.402,22.543,11.554,35.017,13.318c24.087,3.408,42.938-7.779,59.655-23.335
		c1.986-1.848,3.942-3.758,5.874-5.713c1.952-1.975,3.895-4.036,5.092-6.542c2.228-4.662,0.63-10.572-2.934-14.135
		c0,0-23.19-23.19-23.19-23.19c-8.62-8.62-15.507-4.406-21.797,2.83c-4.172,4.801-7.465,10.285-10.927,15.621
		c-2.603,4.011-5.471,7.405-10.623,7.009c-11.04-0.85-21.693-10.244-29.772-17.009c-10.924-9.147-21.081-19.328-30.176-30.299
		c-6.562-7.915-15.567-18.276-16.393-29.034C47.673,126.081,51.067,123.213,55.078,120.61z"/>
	<path class="st6" d="M193.881,212.439c-1.197,2.505-3.14,4.566-5.092,6.542c-1.931,1.955-3.887,3.865-5.874,5.713
		c-16.717,15.556-35.567,26.743-59.655,23.335c-12.474-1.765-24.261-6.917-35.017-13.318C58.46,216.985,31.606,190.096,13.932,160.4
		c-6.402-10.757-11.553-22.543-13.318-35.017c-0.242-1.712-0.403-3.395-0.501-5.056c-0.232,3.873-0.089,7.884,0.501,12.056
		c1.765,12.474,6.917,24.261,13.318,35.017c17.673,29.696,44.527,56.586,74.311,74.311c10.756,6.402,22.543,11.554,35.017,13.318
		c24.087,3.408,42.938-7.779,59.655-23.335c1.986-1.848,3.942-3.758,5.874-5.713c1.952-1.975,3.895-4.036,5.092-6.542
		c1.233-2.58,1.29-5.541,0.495-8.275C194.237,211.596,194.079,212.024,193.881,212.439z"/>
	<path class="st6" d="M36.204,61.762c-2.505,1.197-4.566,3.14-6.542,5.092c-0.333,0.329-0.656,0.663-0.987,0.993l41.921,41.921
		c0.034-0.029,0.069-0.056,0.103-0.085c7.237-6.289,11.45-13.177,2.83-21.797c0,0-23.19-23.19-23.19-23.19
		C46.776,61.133,40.866,59.535,36.204,61.762z"/>
	<path class="st6" d="M190.947,205.304c0,0-23.19-23.19-23.19-23.19c-8.62-8.62-15.507-4.406-21.797,2.83
		c-0.029,0.034-0.056,0.069-0.085,0.103l41.921,41.921c0.33-0.33,0.664-0.654,0.993-0.987c1.952-1.975,3.895-4.036,5.092-6.542
		C196.109,214.777,194.511,208.867,190.947,205.304z"/>
	<path class="st6" d="M190.947,205.304c0,0-23.19-23.19-23.19-23.19c-8.62-8.62-15.507-4.406-21.797,2.83
		c-0.029,0.034-0.056,0.069-0.085,0.103l41.921,41.921c0.33-0.33,0.664-0.654,0.993-0.987c1.952-1.975,3.895-4.036,5.092-6.542
		C196.109,214.777,194.511,208.867,190.947,205.304z"/>
	<path class="st21" d="M194.365,218.199c0.073-0.223,0.143-0.447,0.2-0.674c0.029-0.115,0.05-0.232,0.075-0.348
		c0.047-0.216,0.092-0.433,0.125-0.651c0.018-0.117,0.031-0.234,0.045-0.352c0.027-0.223,0.05-0.446,0.064-0.67
		c0.007-0.111,0.011-0.222,0.015-0.333c0.008-0.236,0.009-0.472,0.003-0.709c-0.003-0.099-0.006-0.198-0.011-0.297
		c-0.013-0.255-0.034-0.51-0.063-0.765c-0.009-0.08-0.017-0.161-0.027-0.241c-0.037-0.284-0.085-0.567-0.141-0.849
		c-0.01-0.051-0.018-0.102-0.029-0.153c-0.07-0.333-0.152-0.665-0.247-0.993c-0.139,0.432-0.297,0.86-0.495,1.275
		c-1.197,2.505-3.14,4.566-5.092,6.542c-1.495,1.513-3.011,2.99-4.539,4.442l3.545,3.545c0.33-0.33,0.664-0.654,0.993-0.987
		c0.732-0.741,1.462-1.493,2.153-2.277c1.151-1.306,2.19-2.699,2.939-4.264c0.147-0.309,0.276-0.624,0.39-0.942
		C194.307,218.399,194.333,218.298,194.365,218.199z"/>
	<path class="st7" d="M48.565,134.409c-0.412,1.127-0.606,2.383-0.495,3.823c0.826,10.758,9.831,21.118,16.393,29.034
		c9.095,10.971,19.252,21.152,30.176,30.299c8.08,6.765,18.732,16.159,29.772,17.009c5.151,0.396,8.02-2.997,10.623-7.009
		c3.462-5.336,6.755-10.82,10.927-15.621c6.289-7.237,13.177-11.45,21.797-2.83c0,0,23.19,23.19,23.19,23.19
		c1.592,1.592,2.787,3.652,3.429,5.86c1.422-4.423-0.182-9.614-3.429-12.86c0,0-23.19-23.19-23.19-23.19
		c-8.62-8.62-15.507-4.406-21.797,2.83c-4.172,4.801-7.465,10.285-10.927,15.621c-2.603,4.011-5.471,7.405-10.623,7.009
		c-11.04-0.85-21.693-10.244-29.772-17.009c-10.924-9.147-21.081-19.328-30.176-30.299C58.55,153.133,50.674,144.013,48.565,134.409
		z"/>
	<path class="st5" d="M149.315,188.486c5.393-4.856,11.327-6.488,18.442,0.627c0,0,23.19,23.19,23.19,23.19
		c1.592,1.592,2.787,3.652,3.429,5.86c0.698-2.172,0.663-4.528,0.066-6.749c-0.015-0.057-0.029-0.114-0.045-0.17
		c-0.059-0.21-0.127-0.418-0.196-0.625c-0.03-0.089-0.059-0.177-0.09-0.265c-0.066-0.185-0.137-0.367-0.211-0.549
		c-0.044-0.109-0.09-0.218-0.137-0.326c-0.071-0.163-0.145-0.325-0.223-0.486c-0.059-0.123-0.121-0.245-0.184-0.367
		c-0.075-0.145-0.151-0.289-0.231-0.431c-0.075-0.134-0.155-0.265-0.234-0.396c-0.077-0.127-0.154-0.255-0.235-0.379
		c-0.094-0.143-0.192-0.282-0.291-0.422c-0.076-0.108-0.151-0.218-0.23-0.323c-0.118-0.157-0.243-0.308-0.367-0.459
		c-0.068-0.083-0.133-0.168-0.203-0.249c-0.198-0.229-0.404-0.451-0.616-0.664c0,0-1.11-1.11-2.844-2.844
		c-0.743-0.743-1.601-1.601-2.535-2.535c-0.311-0.311-0.631-0.631-0.958-0.958c-1.635-1.635-3.447-3.446-5.258-5.258
		c-0.362-0.362-0.725-0.725-1.086-1.086c-5.414-5.414-10.509-10.509-10.509-10.509c-0.808-0.808-1.601-1.503-2.38-2.094
		c-0.26-0.197-0.517-0.382-0.774-0.556c-1.282-0.87-2.525-1.456-3.734-1.796c-5.56-1.565-10.389,2.075-14.91,7.276
		c-0.029,0.034-0.056,0.069-0.085,0.103L149.315,188.486z"/>
	<path class="st7" d="M23.949,79.728c1.848-1.986,3.758-3.942,5.713-5.874c1.975-1.952,4.036-3.895,6.542-5.092
		c4.662-2.228,10.572-0.63,14.135,2.934c0,0,23.19,23.19,23.19,23.19c2.096,2.096,3.428,4.09,4.148,5.997
		c1.472-3.925,0.658-8.192-4.148-12.997c0,0-23.19-23.19-23.19-23.19c-3.563-3.563-9.473-5.161-14.135-2.934
		c-2.505,1.197-4.566,3.14-6.542,5.092c-1.955,1.931-3.865,3.887-5.713,5.874C9.499,88.256-1.173,105.629,0.113,127.327
		C1.221,108.833,11.087,93.55,23.949,79.728z"/>
	<path class="st5" d="M28.676,67.848l3.583,3.583c1.215-1.041,2.505-1.98,3.946-2.668c4.662-2.228,10.572-0.63,14.135,2.934
		c0,0,23.19,23.19,23.19,23.19c2.096,2.096,3.428,4.09,4.148,5.997c0.088-0.235,0.167-0.472,0.239-0.71
		c0.01-0.034,0.019-0.068,0.029-0.102c0.059-0.205,0.113-0.41,0.159-0.617c0.011-0.05,0.021-0.1,0.031-0.15
		c0.04-0.193,0.074-0.386,0.103-0.581c0.008-0.057,0.016-0.115,0.024-0.172c0.024-0.189,0.042-0.38,0.054-0.571
		c0.004-0.06,0.009-0.12,0.011-0.18c0.009-0.195,0.01-0.391,0.007-0.587c-0.001-0.055,0-0.11-0.002-0.165
		c-0.007-0.214-0.024-0.429-0.047-0.646c-0.004-0.037-0.005-0.075-0.01-0.112c-0.06-0.516-0.164-1.039-0.316-1.568
		c-0.007-0.025-0.017-0.05-0.024-0.075c-0.068-0.231-0.145-0.464-0.231-0.698c-0.028-0.075-0.061-0.151-0.09-0.226
		c-0.073-0.185-0.149-0.371-0.234-0.558c-0.042-0.094-0.089-0.188-0.135-0.282c-0.082-0.17-0.168-0.341-0.26-0.513
		c-0.055-0.103-0.114-0.206-0.173-0.31c-0.094-0.165-0.193-0.331-0.297-0.498c-0.067-0.108-0.135-0.216-0.207-0.324
		c-0.109-0.165-0.224-0.331-0.342-0.498c-0.078-0.11-0.155-0.219-0.237-0.329c-0.126-0.17-0.261-0.341-0.397-0.512
		c-0.086-0.108-0.168-0.215-0.258-0.323c-0.154-0.186-0.319-0.374-0.486-0.561c-0.083-0.094-0.161-0.187-0.247-0.281
		c-0.254-0.278-0.52-0.557-0.8-0.838c-0.005-0.004-0.008-0.009-0.013-0.013c0,0-2.265-2.265-5.379-5.378
		c-1.557-1.557-3.326-3.326-5.131-5.131c-0.722-0.722-1.449-1.449-2.171-2.171c-1.444-1.444-2.865-2.865-4.173-4.173
		c-0.654-0.654-1.28-1.28-1.865-1.865c-2.637-2.637-4.471-4.471-4.471-4.471c-0.891-0.891-1.928-1.659-3.056-2.275
		c-1.974-1.078-4.225-1.691-6.452-1.683c-1.591,0.006-3.17,0.328-4.627,1.024c-2.192,1.048-4.044,2.666-5.796,4.362
		c-0.25,0.242-0.499,0.486-0.745,0.73C29.329,67.183,29.006,67.517,28.676,67.848z"/>
	<path class="st2" d="M230.271,0H128.987c-14.21,0-25.729,11.519-25.729,25.729v65.469c0,14.21,11.519,25.729,25.729,25.729h54.389
		v27.125c0,4.28,5.175,6.423,8.201,3.397l30.522-30.522h8.172c14.21,0,25.729-11.519,25.729-25.729V25.729
		C256,11.519,244.481,0,230.271,0z"/>
	<path class="st4" d="M128.987,0l101.284,0C244.481,0,256,11.519,256,25.729v8.392c0-14.21-11.519-25.729-25.729-25.729H128.987
		c-14.21,0-25.729,11.519-25.729,25.729v-8.392C103.258,11.519,114.778,0,128.987,0z"/>
	<path class="st1" d="M200.67,41.637h-69.41c-3.238,0-5.863-2.625-5.863-5.863v0c0-3.238,2.625-5.863,5.863-5.863h69.41
		c3.238,0,5.863,2.625,5.863,5.863v0C206.533,39.012,203.908,41.637,200.67,41.637z"/>
	<path class="st1" d="M227.999,54.412h-51.301h-13.049H131.26c-3.238,0-5.863,2.625-5.863,5.863c0,3.238,2.625,5.863,5.863,5.863
		h32.389h13.049h51.301c3.238,0,5.863-2.625,5.863-5.863C233.862,57.037,231.237,54.412,227.999,54.412z"/>
	<path class="st1" d="M227.999,78.913h-51.301h-13.049H131.26c-3.238,0-5.863,2.625-5.863,5.863c0,3.238,2.625,5.863,5.863,5.863
		h32.389h13.049h51.301c3.238,0,5.863-2.625,5.863-5.863C233.862,81.538,231.237,78.913,227.999,78.913z"/>
</g>
</svg>
