<?xml version="1.0" standalone="no"?>
<!DOCTYPE svg PUBLIC "-//W3C//DTD SVG 20010904//EN"
 "http://www.w3.org/TR/2001/REC-SVG-20010904/DTD/svg10.dtd">
<svg version="1.0" xmlns="http://www.w3.org/2000/svg"
 width="500.000000pt" height="500.000000pt" viewBox="0 0 500.000000 500.000000"
 preserveAspectRatio="xMidYMid meet">

<g transform="translate(0.000000,500.000000) scale(0.100000,-0.100000)"
fill="#000000" stroke="none">
<path d="M0 2500 l0 -2500 2500 0 2500 0 0 2500 0 2500 -2500 0 -2500 0 0
-2500z m3220 1015 c205 -36 391 -116 507 -220 74 -65 124 -168 125 -256 1 -54
-17 -147 -27 -137 -2 2 1 27 6 57 5 36 4 71 -3 100 -12 52 -42 116 -59 126 -6
4 -1 -12 11 -34 26 -53 39 -157 28 -225 -5 -28 -9 -63 -9 -79 0 -15 -4 -25 -9
-22 -4 2 -13 -9 -20 -25 -7 -17 -30 -56 -52 -86 -21 -31 -37 -58 -35 -61 5 -5
115 12 140 22 13 5 17 2 17 -14 0 -29 -28 -40 -117 -47 -99 -7 -122 -16 -58
-24 l50 -5 -42 -23 c-23 -12 -56 -22 -73 -22 -22 0 -58 -19 -128 -70 -125 -90
-340 -197 -514 -254 -75 -25 -143 -46 -150 -45 -7 0 51 22 128 48 213 71 448
195 577 303 l29 24 -26 13 c-39 21 -32 31 23 31 28 0 52 4 55 8 3 5 -20 6 -52
4 -51 -4 -64 -11 -152 -77 -85 -65 -230 -154 -230 -142 0 3 31 23 70 46 103
62 225 162 208 172 -7 5 -47 9 -89 9 -42 0 -97 3 -123 6 -46 7 -46 7 -46 45
l0 39 71 -5 c42 -2 78 -10 88 -18 9 -8 49 -18 88 -21 l73 -7 39 61 c55 86 56
91 21 146 -16 26 -30 51 -30 55 0 4 15 10 33 12 28 3 26 4 -10 5 -24 1 -43 0
-43 -3 0 -3 10 -25 21 -47 l21 -42 -52 47 c-28 25 -68 51 -88 57 -38 10 -214
37 -287 43 -22 2 -8 4 32 5 42 1 75 7 79 13 5 9 -35 10 -157 6 -185 -8 -189
-7 -265 62 l-49 44 150 -5 c134 -5 159 -9 235 -36 103 -36 172 -67 165 -74 -3
-2 62 -12 143 -20 81 -9 149 -14 151 -12 3 2 -3 29 -13 58 -13 42 -34 73 -89
132 -78 84 -63 86 27 3 41 -37 66 -72 96 -135 27 -54 47 -84 58 -85 15 0 15
-1 -1 -8 -14 -5 -9 -9 23 -17 l40 -11 -6 36 c-28 168 -110 281 -276 376 -178
103 -423 155 -733 155 -235 0 -294 15 -161 40 176 33 473 35 646 5z m-492
-112 c-27 -2 -69 -2 -95 0 -27 2 -5 3 47 3 52 0 74 -1 48 -3z m-355 -30 c-7
-2 -19 -2 -25 0 -7 3 -2 5 12 5 14 0 19 -2 13 -5z m-60 -10 c-7 -2 -19 -2 -25
0 -7 3 -2 5 12 5 14 0 19 -2 13 -5z m-46 -9 c-3 -3 -12 -4 -19 -1 -8 3 -5 6 6
6 11 1 17 -2 13 -5z m-40 -10 c-3 -3 -12 -4 -19 -1 -8 3 -5 6 6 6 11 1 17 -2
13 -5z m-40 -10 c-3 -3 -12 -4 -19 -1 -8 3 -5 6 6 6 11 1 17 -2 13 -5z m-116
-35 c-30 -10 -56 -17 -58 -15 -5 5 77 34 97 34 8 1 -9 -8 -39 -19z m1299 -5
c0 -2 -9 0 -20 6 -11 6 -20 13 -20 16 0 2 9 0 20 -6 11 -6 20 -13 20 -16z
m-1390 -26 c-181 -79 -234 -106 -317 -160 -54 -36 -125 -89 -157 -119 l-59
-54 34 -5 34 -6 -53 -23 c-29 -13 -51 -25 -49 -27 1 -2 34 6 72 18 49 14 82
32 110 58 69 64 146 116 259 174 60 31 114 56 120 56 6 0 -33 -22 -86 -49
-107 -54 -206 -121 -253 -171 l-30 -33 35 7 c72 14 247 36 310 38 52 1 45 3
-39 7 l-103 6 80 43 c114 61 207 90 330 103 210 23 479 -14 558 -77 79 -63 78
-61 63 -66 -8 -3 28 -8 80 -12 52 -4 102 -11 111 -16 10 -5 23 -32 30 -59 6
-27 18 -52 26 -55 23 -9 54 -86 54 -136 0 -53 -30 -124 -58 -139 -34 -18 -42
-12 -17 13 45 45 57 155 25 231 l-13 30 -9 -45 c-5 -25 -7 -60 -4 -77 4 -25 0
-35 -14 -43 -10 -5 -23 -25 -29 -43 -7 -19 -21 -43 -32 -55 l-20 -22 28 -1
c66 -2 -15 -11 -402 -44 -438 -39 -712 -54 -970 -55 l-160 -1 42 -38 c87 -78
265 -150 440 -176 54 -8 170 -15 258 -16 153 -1 229 -9 195 -22 -55 -20 -137
-30 -285 -34 -198 -6 -349 14 -501 67 -117 40 -183 81 -255 158 -36 38 -67 62
-81 63 -17 1 -18 3 -5 6 21 6 21 7 -3 79 -22 66 -25 94 -10 94 6 0 10 9 10 20
0 11 -4 20 -10 20 -12 0 -13 70 -2 88 5 7 16 10 26 6 11 -4 26 2 42 16 33 32
30 40 -11 40 -19 0 -35 4 -35 9 0 16 58 59 97 72 22 7 68 41 111 81 108 102
269 199 437 264 60 23 102 32 55 12z m40 -78 c-8 -5 -19 -10 -25 -10 -5 0 -3
5 5 10 8 5 20 10 25 10 6 0 3 -5 -5 -10z m1314 -273 c3 4 6 1 6 -6 0 -7 5 -9
12 -5 7 4 8 3 4 -5 -4 -6 -2 -18 4 -26 18 -22 -36 -32 -69 -14 -48 27 -35 78
15 59 12 -5 25 -6 28 -3z m129 -21 c40 -30 31 -56 -21 -56 -22 0 -62 40 -62
61 0 33 33 31 83 -5z m-292 -296 c10 0 19 -4 19 -8 0 -19 -38 -40 -84 -47
l-49 -7 42 40 c22 21 42 47 42 58 1 10 4 7 6 -8 3 -20 10 -28 24 -28z m-1741
-416 c0 -2 -13 2 -30 11 -16 9 -30 18 -30 21 0 2 14 -2 30 -11 17 -9 30 -18
30 -21z m1357 -20 c-3 -3 -12 -4 -19 -1 -8 3 -5 6 6 6 11 1 17 -2 13 -5z m-40
-10 c-3 -3 -12 -4 -19 -1 -8 3 -5 6 6 6 11 1 17 -2 13 -5z m-44 -11 c-7 -2
-19 -2 -25 0 -7 3 -2 5 12 5 14 0 19 -2 13 -5z m-46 -9 c-3 -3 -12 -4 -19 -1
-8 3 -5 6 6 6 11 1 17 -2 13 -5z m-50 -10 c-3 -3 -12 -4 -19 -1 -8 3 -5 6 6 6
11 1 17 -2 13 -5z m-54 -11 c-7 -2 -21 -2 -30 0 -10 3 -4 5 12 5 17 0 24 -2
18 -5z m-65 -10 c-10 -2 -26 -2 -35 0 -10 3 -2 5 17 5 19 0 27 -2 18 -5z m-70
-10 c-10 -2 -28 -2 -40 0 -13 2 -5 4 17 4 22 1 32 -1 23 -4z m-110 -10 c-21
-2 -55 -2 -75 0 -21 2 -4 4 37 4 41 0 58 -2 38 -4z m-1062 -238 c13 -44 27
-87 30 -95 7 -17 9 -12 44 108 l22 72 50 0 c36 0 49 -4 46 -12 -3 -7 -27 -75
-53 -150 l-48 -138 -57 0 -57 0 -48 138 c-27 75 -50 143 -53 150 -3 10 8 12
48 10 l53 -3 23 -80z m404 -65 l0 -150 -50 0 -50 0 0 150 0 150 50 0 50 0 0
-150z m359 124 c27 -22 31 -32 31 -75 0 -72 -29 -99 -105 -99 l-55 0 0 -50 0
-50 -50 0 -50 0 0 150 0 150 99 0 c92 0 102 -2 130 -26z m362 9 c72 -28 99
-125 59 -209 -28 -56 -72 -74 -185 -74 l-85 0 0 150 0 150 85 0 c55 0 99 -6
126 -17z m450 -12 c37 -38 38 -79 2 -122 l-27 -32 32 -58 33 -59 -56 0 -55 0
-27 55 c-18 36 -33 55 -45 55 -15 0 -18 -9 -18 -55 l0 -55 -50 0 -50 0 0 150
0 150 116 0 c114 0 116 0 145 -29z m249 -121 l0 -150 -50 0 -50 0 0 150 0 150
50 0 50 0 0 -150z m236 65 c13 -44 27 -87 30 -95 7 -17 9 -12 44 108 l22 72
50 0 c36 0 49 -4 46 -12 -3 -7 -27 -75 -53 -150 l-48 -138 -57 0 -57 0 -48
138 c-27 75 -50 143 -53 150 -3 10 8 12 48 10 l53 -3 23 -80z m564 50 l0 -34
-82 -3 c-70 -3 -83 -6 -86 -20 -3 -16 5 -18 67 -18 l71 0 0 -35 0 -34 -67 -3
c-60 -3 -68 -5 -68 -23 0 -18 8 -20 83 -23 l82 -3 0 -34 0 -35 -130 0 -130 0
0 150 0 150 130 0 130 0 0 -35z m-2337 -538 l42 -4 -47 -1 -48 -2 2 83 2 82 3
-77 4 -77 42 -4z m99 16 c13 -16 50 -17 66 -1 7 7 12 39 12 75 0 35 4 63 10
63 6 0 10 -26 10 -58 0 -72 -18 -102 -64 -102 -48 0 -56 15 -54 95 l2 70 3
-65 c2 -35 9 -70 15 -77z m214 105 c10 18 22 32 27 32 4 0 -3 -16 -17 -37
l-25 -36 25 -44 c31 -52 24 -57 -10 -6 l-25 36 -22 -37 c-12 -20 -24 -35 -26
-32 -3 3 5 22 18 42 l23 37 -23 41 -22 41 29 -34 29 -34 19 31z m97 -105 c5
-7 21 -13 37 -13 37 0 44 11 51 90 l6 65 1 -67 c2 -76 -11 -98 -58 -98 -47 0
-60 22 -58 98 l1 67 6 -65 c3 -36 10 -71 14 -77z m235 125 c15 -15 15 -43 1
-66 -9 -14 -8 -26 6 -51 9 -18 12 -30 6 -26 -6 3 -18 19 -26 36 -23 43 -53 39
-58 -8 -2 -21 -4 -1 -5 45 l-2 82 33 0 c18 0 38 -5 45 -12z m82 -28 c11 -22
22 -40 25 -40 3 0 14 18 25 41 12 23 23 39 26 36 2 -2 -7 -24 -21 -48 -13 -24
-25 -60 -26 -79 l-2 -35 -6 40 c-4 22 -17 56 -29 75 -12 19 -22 38 -22 43 0
16 11 5 30 -33z m300 32 c0 -4 -15 -6 -34 -4 -26 3 -37 -1 -50 -19 -36 -52
-10 -115 52 -122 l37 -4 -42 -1 c-51 -2 -73 22 -73 80 0 49 28 78 75 78 19 0
35 -4 35 -8z m134 -76 c15 -38 24 -71 21 -74 -2 -3 -10 9 -16 26 -9 27 -16 32
-44 32 -28 0 -35 -5 -44 -32 -6 -17 -13 -29 -16 -26 -3 3 4 30 16 59 11 30 25
65 30 78 12 31 20 22 53 -63z m150 68 c20 -20 20 -33 -1 -56 -16 -18 -16 -21
1 -49 10 -17 16 -33 13 -35 -2 -3 -14 11 -25 31 -29 49 -59 48 -65 -2 -2 -21
-4 -1 -5 45 l-2 82 34 0 c19 0 42 -7 50 -16z m224 4 c17 -17 15 -55 -5 -66
-15 -9 -14 -13 6 -46 13 -20 19 -36 14 -36 -5 0 -17 16 -27 35 -11 21 -27 35
-38 35 -14 0 -18 -8 -18 -35 0 -19 -4 -35 -10 -35 -6 0 -10 33 -10 80 l0 80
38 0 c21 0 43 -5 50 -12z m115 5 c-40 -4 -43 -6 -43 -34 0 -27 2 -29 43 -30
l42 -2 -40 -6 c-36 -5 -40 -9 -43 -38 -3 -31 -2 -32 40 -36 l43 -4 -47 -1 -48
-2 0 80 0 80 48 -2 47 -1 -42 -4z m147 -61 l45 -67 6 70 5 70 2 -82 c1 -46 -1
-83 -5 -83 -5 0 -28 31 -53 68 l-45 67 -6 -70 -5 -70 -2 83 c-1 45 1 82 6 82
4 0 27 -31 52 -68z m188 61 c-28 -4 -28 -6 -30 -81 l-2 -77 -3 77 c-4 75 -5
77 -31 81 -15 2 0 4 33 4 33 0 48 -2 33 -4z"/>
<path d="M3617 2778 c-8 -18 -31 -55 -51 -81 l-37 -48 63 3 63 3 47 69 c27 38
48 73 48 78 0 4 -27 8 -60 8 -58 0 -60 -1 -73 -32z"/>
<path d="M2493 3103 c15 -2 39 -2 55 0 15 2 2 4 -28 4 -30 0 -43 -2 -27 -4z"/>
<path d="M2400 3069 c-22 -18 -22 -19 -3 -10 12 6 25 16 28 21 9 15 3 12 -25
-11z"/>
<path d="M2331 2996 l-43 -44 -186 -5 c-193 -5 -251 -14 -353 -58 -60 -26 -59
-35 2 -13 134 48 208 56 579 61 275 3 363 7 390 18 19 8 44 16 55 18 11 3 4 5
-16 6 -20 0 -56 -6 -79 -14 -31 -11 -86 -15 -206 -15 -90 0 -164 3 -164 7 0 4
17 24 37 45 20 21 35 38 32 38 -3 0 -24 -20 -48 -44z"/>
<path d="M2903 2910 c-24 -10 -67 -70 -78 -110 -5 -17 3 -10 24 21 38 56 81
80 122 69 37 -11 37 -5 -1 15 -33 17 -36 17 -67 5z"/>
<path d="M2421 2864 c-112 -8 -206 -16 -208 -18 -10 -10 29 -54 45 -50 9 2
107 20 217 39 110 20 205 38 210 40 16 6 -47 3 -264 -11z"/>
<path d="M1808 2841 c-92 -9 -170 -20 -174 -24 -4 -4 3 -7 15 -7 13 0 37 -10
53 -22 29 -20 36 -21 112 -11 56 6 106 21 161 46 77 35 79 37 40 36 -22 -1
-115 -9 -207 -18z"/>
<path d="M1398 2813 c18 -2 45 -2 60 0 15 2 0 4 -33 4 -33 0 -45 -2 -27 -4z"/>
<path d="M1543 2813 c15 -2 39 -2 55 0 15 2 2 4 -28 4 -30 0 -43 -2 -27 -4z"/>
<path d="M2910 2793 c-19 -24 -21 -38 -18 -96 3 -56 8 -71 30 -93 33 -33 60
-26 83 23 33 69 1 183 -52 191 -13 2 -29 -7 -43 -25z m70 -8 c9 -11 9 -18 -3
-35 -17 -24 -27 -16 -27 22 0 31 11 36 30 13z m-42 -60 c-3 -3 -13 -3 -22 1
-19 7 -21 35 -3 53 10 10 14 6 21 -19 5 -16 7 -33 4 -35z m72 -29 c0 -44 -14
-53 -29 -20 -9 20 -9 30 0 40 19 23 29 16 29 -20z m-82 -5 c10 -6 11 -13 1
-35 -14 -29 -29 -19 -29 22 0 23 7 27 28 13z m50 -51 c15 -25 8 -40 -19 -40
-19 0 -24 15 -13 44 8 21 17 20 32 -4z"/>
<path d="M2088 2790 c-38 -29 -51 -71 -46 -145 3 -55 8 -69 33 -95 37 -38 77
-40 110 -4 24 26 45 80 45 118 0 40 -25 98 -53 122 -35 29 -56 30 -89 4z m28
-88 c-9 -8 -56 16 -56 28 0 6 12 23 28 38 l27 27 3 -44 c2 -23 1 -46 -2 -49z
m70 53 c16 -24 15 -26 -7 -44 -31 -25 -39 -19 -39 30 0 46 21 53 46 14z m-89
-98 c10 -7 9 -15 -3 -38 -23 -46 -44 -32 -44 32 0 23 3 27 18 22 9 -3 23 -10
29 -16z m113 -14 c0 -59 -13 -69 -36 -28 -19 36 -19 37 0 51 30 21 36 17 36
-23z m-40 -89 c0 -14 -36 -25 -56 -17 -18 7 -18 17 2 55 l16 31 19 -29 c10
-16 19 -34 19 -40z"/>
<path d="M1278 2743 c6 -2 18 -2 25 0 6 3 1 5 -13 5 -14 0 -19 -2 -12 -5z"/>
<path d="M1375 2730 c28 -12 65 -12 65 0 0 6 -19 10 -42 9 -33 0 -38 -2 -23
-9z"/>
<path d="M1485 2730 c-7 -12 88 -12 180 0 53 6 45 7 -57 9 -69 0 -119 -3 -123
-9z"/>
<path d="M2618 2683 c12 -2 30 -2 40 0 9 3 -1 5 -23 4 -22 0 -30 -2 -17 -4z"/>
<path d="M2543 2673 c9 -2 23 -2 30 0 6 3 -1 5 -18 5 -16 0 -22 -2 -12 -5z"/>
<path d="M1723 2663 c9 -2 23 -2 30 0 6 3 -1 5 -18 5 -16 0 -22 -2 -12 -5z"/>
<path d="M1575 2629 c-75 -13 -112 -15 -149 -8 -65 12 -70 4 -7 -11 41 -10 67
-9 153 5 57 10 146 21 198 25 l95 7 -95 0 c-52 0 -140 -8 -195 -18z"/>
<path d="M2640 2599 c-52 -4 -142 -16 -200 -27 l-105 -20 71 -1 c39 -1 152 2
250 6 l180 6 -23 24 c-15 14 -34 22 -51 21 -15 -1 -70 -5 -122 -9z"/>
<path d="M1290 2562 c0 -17 33 -82 41 -82 5 0 0 18 -10 40 -20 44 -31 59 -31
42z"/>
<path d="M1585 2523 c-29 -26 -30 -26 -5 -20 14 3 90 8 170 12 160 7 190 11
190 25 0 6 -63 10 -162 10 -162 -1 -163 -1 -193 -27z"/>
<path d="M2238 2543 c12 -2 30 -2 40 0 9 3 -1 5 -23 4 -22 0 -30 -2 -17 -4z"/>
<path d="M1428 2498 c5 -5 16 -8 23 -6 8 3 3 7 -10 11 -17 4 -21 3 -13 -5z"/>
<path d="M1880 1830 c0 -26 3 -30 29 -30 32 0 48 24 30 46 -6 8 -22 14 -35 14
-20 0 -24 -5 -24 -30z"/>
<path d="M2260 1780 c0 -79 0 -80 25 -80 38 0 65 33 65 80 0 47 -27 80 -65 80
-25 0 -25 -1 -25 -80z"/>
<path d="M2660 1835 c0 -25 3 -26 43 -23 34 2 42 7 42 23 0 16 -8 21 -42 23
-40 3 -43 2 -43 -23z"/>
<path d="M2110 1465 c0 -28 4 -35 19 -35 34 0 51 12 51 35 0 23 -17 35 -51 35
-15 0 -19 -7 -19 -35z"/>
<path d="M2642 1455 c-16 -35 -16 -35 13 -35 28 0 30 5 12 38 l-13 23 -12 -26z"/>
<path d="M2770 1465 c0 -35 1 -36 33 -33 28 3 32 6 32 33 0 27 -4 30 -32 33
-32 3 -33 2 -33 -33z"/>
<path d="M3000 1464 c0 -32 2 -35 26 -32 56 6 53 68 -2 68 -21 0 -24 -5 -24
-36z"/>
</g>
</svg>
