<?xml version="1.0" standalone="no"?>
<!DOCTYPE svg PUBLIC "-//W3C//DTD SVG 20010904//EN"
 "http://www.w3.org/TR/2001/REC-SVG-20010904/DTD/svg10.dtd">
<svg version="1.0" xmlns="http://www.w3.org/2000/svg"
 width="500.000000pt" height="500.000000pt" viewBox="0 0 500.000000 500.000000"
 preserveAspectRatio="xMidYMid meet">

<g transform="translate(0.000000,500.000000) scale(0.100000,-0.100000)"
fill="#000000" stroke="none">
<path d="M2211 3130 c-52 -5 -117 -17 -145 -26 -53 -17 -224 -99 -240 -115 -6
-5 32 -10 100 -10 l109 -2 -110 -8 c-187 -15 -350 -47 -520 -103 -11 -4 9 9
45 28 l65 36 -55 -6 c-64 -7 -164 -52 -168 -76 -7 -36 230 -36 595 0 95 10
169 14 165 11 -4 -4 -45 -24 -92 -45 -67 -29 -101 -38 -162 -42 -67 -4 -80 -2
-103 16 -25 20 -38 21 -192 19 -142 -3 -167 -5 -178 -20 -7 -9 -24 -17 -39
-17 -14 0 -26 -4 -26 -10 0 -11 -9 -11 275 -19 l210 -6 -130 -11 c-104 -10
-150 -9 -230 2 -141 18 -137 19 -133 -13 3 -25 8 -29 53 -34 l50 -6 -42 -1
c-55 -2 -55 -18 0 -26 23 -3 69 -12 102 -19 49 -11 72 -11 135 0 41 7 136 15
210 17 131 4 132 4 30 -4 -58 -4 -155 -15 -217 -25 -110 -17 -112 -17 -203 5
-99 23 -120 21 -120 -8 0 -27 18 -38 68 -45 24 -3 54 -14 66 -26 11 -11 36
-26 55 -34 l34 -14 -74 -7 c-166 -16 -141 -24 81 -25 321 -1 636 14 1100 54
369 32 458 42 407 44 -17 1 -16 4 7 32 14 17 26 36 26 42 -1 7 -7 0 -15 -14
-43 -80 -116 -25 -117 88 -1 64 25 108 63 108 34 0 69 -56 69 -112 l0 -43 24
15 c20 13 23 22 19 53 -2 20 0 55 5 77 l9 40 17 -37 c30 -69 17 -177 -27 -225
-28 -31 -3 -30 28 1 58 58 58 194 -2 254 -14 14 -31 46 -39 73 -17 55 -17 55
-138 64 -49 4 -84 10 -78 14 7 4 -10 24 -44 50 -47 37 -69 46 -162 67 -123 29
-279 37 -421 24z m389 -30 c15 -5 0 -6 -41 -3 -38 3 -81 1 -101 -6 -33 -11
-147 -115 -137 -125 11 -11 347 -8 367 3 11 6 42 11 69 10 l48 0 -50 -16 c-39
-12 -128 -17 -405 -23 -377 -8 -484 -21 -612 -71 -75 -29 -69 -17 9 19 96 44
201 62 386 67 l162 5 55 59 c30 33 69 66 85 75 32 16 123 20 165 6z m395 -211
l20 -21 -22 11 c-53 27 -114 -4 -153 -78 -25 -46 -25 -19 -1 35 37 81 106 105
156 53z m-300 -14 c-5 -2 -100 -20 -210 -40 -110 -19 -210 -37 -221 -40 -16
-3 -27 3 -39 21 -9 14 -14 28 -11 31 3 3 90 11 193 18 192 12 306 16 288 10z
m-511 -91 c49 -50 59 -134 24 -204 -51 -101 -153 -68 -172 55 -12 83 38 175
95 175 15 0 37 -11 53 -26z m-391 -41 c-7 -2 -21 -2 -30 0 -10 3 -4 5 12 5 17
0 24 -2 18 -5z m886 -57 c-2 -2 -40 -6 -84 -9 -51 -3 -65 -2 -40 2 43 9 131
14 124 7z m-869 -17 c-25 -4 -65 -7 -90 -7 -45 1 -45 1 10 8 30 4 71 7 90 7
31 0 30 0 -10 -8z m687 -5 c-3 -3 -12 -4 -19 -1 -8 3 -5 6 6 6 11 1 17 -2 13
-5z m316 -78 l24 -24 -166 -6 c-359 -13 -472 -15 -384 -6 46 5 134 18 195 29
140 26 157 28 240 30 59 1 70 -2 91 -23z m-868 -46 c8 -13 -22 -18 -160 -25
-66 -3 -145 -8 -175 -11 l-55 -6 30 26 c29 25 33 25 192 26 94 0 164 -4 168
-10z"/>
<path d="M2073 2754 c-16 -25 -16 -27 2 -40 33 -24 45 -17 45 26 0 48 -20 54
-47 14z"/>
<path d="M2150 2740 c0 -43 5 -47 33 -26 18 14 18 16 2 40 -24 37 -35 32 -35
-14z"/>
<path d="M2053 2640 c7 -52 13 -59 32 -34 22 29 18 49 -11 63 l-27 12 6 -41z"/>
<path d="M2174 2666 c-19 -14 -19 -15 1 -51 16 -31 20 -34 26 -18 10 25 11 83
1 83 -5 0 -17 -6 -28 -14z"/>
<path d="M2112 2585 c-7 -14 -12 -30 -12 -34 0 -13 35 -19 54 -9 14 8 15 12 1
38 -19 37 -28 38 -43 5z"/>
<path d="M2780 3107 c0 -3 25 -27 56 -53 l55 -48 209 0 c235 -1 234 -2 62 61
-89 32 -109 35 -239 40 -79 3 -143 3 -143 0z"/>
<path d="M3140 2983 c109 -10 269 -38 295 -50 17 -9 50 -34 74 -57 l43 -41
-23 42 c-13 23 -21 45 -17 48 3 4 45 7 93 8 85 2 86 2 45 14 -72 21 -299 43
-425 41 -66 0 -104 -3 -85 -5z"/>
<path d="M3583 2923 c-29 -2 -53 -7 -53 -10 0 -13 44 -83 56 -87 7 -3 51 -8
98 -12 96 -8 99 -5 72 60 -12 29 -21 35 -66 45 -28 6 -52 10 -53 9 -1 -1 -26
-3 -54 -5z"/>
<path d="M3260 2901 c0 -24 36 -51 67 -51 42 0 40 39 -3 59 -38 17 -64 14 -64
-8z"/>
<path d="M3380 2901 c0 -22 44 -61 69 -61 19 0 41 18 41 34 0 5 -3 7 -6 4 -3
-3 -16 5 -29 18 -30 30 -75 33 -75 5z"/>
<path d="M3775 2860 c22 -45 29 -52 20 -20 -4 14 -14 32 -22 40 -12 12 -11 7
2 -20z"/>
<path d="M2950 2783 c0 -10 4 -24 9 -31 6 -10 10 -10 21 3 10 12 10 18 0 30
-17 20 -30 19 -30 -2z"/>
<path d="M2910 2767 c-14 -29 -10 -41 12 -35 9 2 12 12 7 33 l-6 30 -13 -28z"/>
<path d="M2981 2713 c-10 -20 2 -53 19 -53 13 0 13 57 1 65 -6 3 -14 -3 -20
-12z"/>
<path d="M2900 2678 c0 -13 4 -30 9 -37 8 -12 11 -9 16 11 7 28 1 48 -16 48
-5 0 -9 -10 -9 -22z"/>
<path d="M3184 2662 c3 -19 7 -36 9 -39 11 -10 312 -18 444 -12 157 8 203 18
203 45 0 13 -6 15 -27 10 -44 -11 -345 -19 -407 -12 -31 4 -62 13 -69 20 -7 8
-45 15 -86 18 l-73 4 6 -34z"/>
<path d="M2946 2638 c-9 -35 -8 -38 14 -38 20 0 25 15 14 44 -9 23 -21 20 -28
-6z"/>
<path d="M3141 2633 c0 -7 -15 -28 -32 -48 l-31 -35 39 0 c27 0 46 6 57 19 17
18 16 19 -3 26 -11 3 -22 16 -24 28 -2 12 -5 17 -6 10z"/>
<path d="M3490 2585 c0 -15 70 -45 105 -45 35 0 105 30 105 45 0 3 -47 5 -105
5 -58 0 -105 -2 -105 -5z"/>
<path d="M1122 1922 c2 -5 25 -72 53 -150 l50 -142 55 0 55 0 52 150 52 150
-47 0 -48 0 -31 -102 c-17 -57 -33 -96 -36 -88 -3 8 -18 54 -32 103 l-26 87
-50 0 c-28 0 -49 -4 -47 -8z"/>
<path d="M1550 1780 l0 -150 50 0 50 0 0 150 0 150 -50 0 -50 0 0 -150z"/>
<path d="M1780 1780 l0 -150 44 0 45 0 3 48 3 47 59 5 c48 4 62 10 82 33 35
41 33 99 -5 138 -29 28 -32 29 -130 29 l-101 0 0 -150z m165 60 c9 -29 -2 -40
-41 -40 -31 0 -34 2 -34 30 0 28 3 30 34 30 26 0 36 -5 41 -20z"/>
<path d="M2160 1780 l0 -152 98 4 c144 5 184 38 184 148 0 110 -40 143 -184
148 l-98 4 0 -152z m172 63 c12 -11 18 -30 18 -63 0 -56 -23 -83 -67 -78 -27
3 -28 5 -31 67 -2 35 -1 70 2 77 7 19 56 17 78 -3z"/>
<path d="M2570 1781 l0 -151 45 0 45 0 0 55 c0 49 2 55 21 55 15 0 27 -14 45
-55 l25 -55 50 0 c27 0 49 3 49 8 -1 4 -14 31 -29 61 l-28 54 26 23 c34 29 36
93 3 126 -20 21 -34 23 -137 26 l-115 4 0 -151z m178 52 c3 -17 -3 -24 -22
-29 -41 -10 -61 -1 -64 29 -3 27 -2 28 40 25 36 -2 44 -7 46 -25z"/>
<path d="M2980 1780 l0 -150 45 0 45 0 0 150 0 150 -45 0 -45 0 0 -150z"/>
<path d="M3182 1922 c2 -5 25 -72 53 -150 l50 -142 55 0 55 0 52 150 52 150
-47 0 -48 0 -31 -102 c-17 -57 -33 -96 -36 -88 -3 8 -18 54 -32 103 l-26 87
-50 0 c-28 0 -49 -4 -47 -8z"/>
<path d="M3610 1780 l0 -150 130 0 130 0 0 35 0 35 -85 0 c-84 0 -85 0 -85 25
0 24 2 25 70 25 l70 0 0 35 0 35 -70 0 c-63 0 -70 2 -70 20 0 18 7 20 85 20
l85 0 0 35 0 35 -130 0 -130 0 0 -150z"/>
</g>
</svg>
